<?xml version="1.0" encoding="utf-8"?>
<!-- Svg Vector Icons : http://www.onlinewebfonts.com/icon -->
<!DOCTYPE svg PUBLIC "-//W3C//DTD SVG 1.1//EN" "http://www.w3.org/Graphics/SVG/1.1/DTD/svg11.dtd">
<svg version="1.1" xmlns="http://www.w3.org/2000/svg" xmlns:xlink="http://www.w3.org/1999/xlink" x="0px" y="0px" viewBox="0 0 1000 1000" enable-background="new 0 0 1000 1000" xml:space="preserve">
<metadata> Svg Vector Icons : http://www.onlinewebfonts.com/icon </metadata>
<g><g transform="translate(0.000000,511.000000) scale(0.100000,-0.100000)"><path d="M4420.4,4987.9c-636.5-71.2-1350.3-313.2-1931.9-654.8c-652.8-386.4-1323.9-1057.5-1710.3-1710.3C428.4,2024.9,192.5,1323.3,121.3,656.3c-28.5-254.2-28.5-835.8,0-1090c181-1673.7,1238.5-3156.2,2780-3894.4c451.5-215.6,1053.4-386.4,1553.7-439.3c254.2-28.5,835.8-28.5,1090,0c1094.1,118,2131.2,618.2,2922.3,1411.3C9260.4-2565,9760.7-1527.8,9878.7-433.8c28.5,254.2,28.5,835.8,0,1090C9697.7,2336,8632,3820.6,7082.4,4558.8C6637.1,4770.3,6043.2,4937,5545,4989.9C5311.1,5016.4,4652.3,5014.3,4420.4,4987.9z M5528.7,4847.6c876.5-95.6,1744.8-455.5,2450.5-1014.8c209.5-164.7,577.6-532.8,742.3-742.3c439.3-555.2,793.1-1289.3,933.4-1942.1c142.3-663,142.3-1411.3,0-2074.3c-142.4-658.9-492.1-1382.9-945.6-1954.3c-150.5-193.2-524.7-567.4-717.9-717.9C7420-4051.6,6696-4401.4,6037.1-4543.7c-663-142.4-1411.3-142.4-2074.3,0c-652.8,140.3-1386.9,494.2-1942.1,933.4c-209.5,164.7-577.6,532.8-742.3,742.3c-307.1,386.4-622.3,951.7-772.8,1382.9C214.9-655.4,157.9,278,343,1138.2c144.4,667,492.1,1391,935.5,1952.3c164.7,209.5,532.8,577.5,742.3,742.3C3019.3,4623.9,4269.9,4985.8,5528.7,4847.6z"/><path d="M4589.2,2149c-311.1-309.1-321.3-323.4-321.3-404.7c0-44.7,12.2-91.5,26.4-103.7c14.2-12.2,81.3-24.4,146.4-28.5l122-6.1l12.2-122c24.4-235.9,54.9-254.2,425-254.2c370.1,0,400.6,18.3,425,254.2l12.2,122l122,6.1c65.1,4.1,132.2,16.3,146.4,28.5c14.2,12.2,26.4,59,26.4,103.7c0,81.3-10.2,95.6-321.3,404.7c-317.2,317.2-321.3,321.3-410.8,321.3C4910.5,2470.3,4906.5,2466.2,4589.2,2149z M5315.2,2043.2l282.7-282.7l-152.5-6.1l-150.5-6.1l-10.2-183l-10.2-183H5000h-274.5l-10.2,183l-10.2,183l-150.5,6.1l-152.5,6.1l282.7,282.7c156.6,156.6,298.9,284.7,315.2,284.7S5158.6,2199.8,5315.2,2043.2z"/><path d="M4735.6,1030.5c-317.3-83.4-577.6-343.7-663-663c-61-229.8-20.3-522.6,99.7-730.1c71.2-122,274.5-305,406.7-366.1c292.9-140.3,654.8-113.9,921.2,67.1l95.6,63L5726-726.6c117.9-115.9,130.2-134.2,117.9-193.2c-6.1-38.6,0-93.5,18.3-132.2c14.2-36.6,179-215.6,362-396.6c333.5-331.5,333.5-331.5,427.1-331.5c105.8,0,181,46.8,219.6,140.3c52.9,128.1,24.4,172.9-353.8,549.1l-353.8,351.8l-103.7-6.1c-103.7-6.1-105.7-4.1-235.9,124l-130.1,128.1l48.8,63.1c26.4,36.6,75.2,120,105.8,185c52.9,111.9,56.9,142.4,56.9,366.1c0,240-2,246.1-75.2,402.7C5628.4,943,5187.1,1148.4,4735.6,1030.5z M5227.8,882C5801.2,688.8,5970-18.9,5545-443.9c-388.4-388.4-1045.3-274.5-1291.3,223.7c-52.9,107.8-56.9,136.3-56.9,341.7s4.1,233.9,59,345.7C4434.7,831.2,4851.6,1010.1,5227.8,882z M6427.6-1184.2c166.8-166.7,307.1-321.3,315.2-347.7c6.1-24.4,0-59-14.2-75.2c-56.9-69.1-109.8-32.5-435.2,292.8c-311.1,311.1-323.3,327.4-301,376.2c16.3,38.6,38.6,52.9,79.3,52.9C6114.4-885.2,6187.6-948.3,6427.6-1184.2z"/><path d="M2962.3,583.1C2645.1,265.8,2641,261.7,2641,172.3c0-89.5,4.1-93.5,321.3-410.8c309.1-311.1,323.4-321.3,404.7-321.3c44.7,0,91.5,12.2,103.7,26.4c12.2,14.2,24.4,81.3,28.5,146.4l6.1,122l122,12.2c235.9,24.4,254.2,54.9,254.2,425s-18.3,400.6-254.2,425l-122,12.2l-6.1,122c-4.1,65.1-16.3,132.2-28.5,146.4c-12.2,14.2-59,26.4-103.7,26.4C3285.7,904.4,3271.4,894.2,2962.3,583.1z M3546,457l183-10.2V172.3v-274.6l-183-10.2l-183-10.2l-6.1-150.5l-6.1-152.5L3068.1-143C2911.5,13.6,2783.4,154,2783.4,172.3c0,16.3,126.1,156.6,280.6,311.1L3342.6,762l10.2-146.4l10.2-148.5L3546,457z"/><path d="M6529.3,877.9c-12.2-14.2-24.4-81.3-28.5-146.4l-6.1-122l-122-12.2c-235.9-24.4-254.2-54.9-254.2-425s18.3-400.6,254.2-425l122-12.2l6.1-122c4.1-65.1,16.3-132.2,28.5-146.4c12.2-14.2,59-26.4,103.7-26.4c79.3,0,95.6,12.2,404.7,321.3C7354.9,78.7,7359,84.8,7359,172.3c0,89.5-4.1,93.6-321.3,410.8c-309.1,311.1-323.3,321.3-404.7,321.3C6588.2,904.4,6541.5,892.2,6529.3,877.9z M7216.6,172.3c0-16.3-128.1-158.6-284.7-315.2l-282.7-282.7l-6.1,152.5l-6.1,150.5l-183,10.2l-183,10.2v274.6v274.5l183,10.2l183,10.2l6.1,150.5l6.1,152.5l282.7-282.7C7088.5,330.9,7216.6,188.5,7216.6,172.3z"/><path d="M4672.6-1037.7c-67.1-36.6-81.3-69.1-97.6-223.7l-12.2-122l-122-6.1c-65.1-4.1-132.2-16.3-146.4-28.5c-14.2-12.2-26.4-59-26.4-103.7c0-81.3,10.2-95.6,321.3-404.7c317.2-317.2,321.3-321.3,410.8-321.3c87.4,0,93.5,4.1,410.8,321.3c309.1,309.1,321.3,325.4,321.3,404.7c0,44.7-12.2,91.5-26.4,103.7c-14.2,12.2-81.3,24.4-146.4,28.5l-122,6.1l-12.2,122c-16.3,156.6-30.5,189.1-101.7,223.7C5244-995,4747.8-997.1,4672.6-1037.7z M5284.7-1342.8l10.2-183l150.5-6.1l152.5-6.1l-282.7-282.7c-156.6-156.6-298.9-284.7-315.2-284.7s-158.6,128.1-315.2,284.7L4402.1-1538l152.5,6.1l150.5,6.1l6.1,162.7c2,89.5,8.1,174.9,14.2,189.1c6.1,20.3,75.2,24.4,278.6,20.3l270.4-6.1L5284.7-1342.8z"/></g></g>
</svg>