<svg id="Capa_1" enable-background="new 0 0 512 512" height="512" viewBox="0 0 512 512" width="512" xmlns="http://www.w3.org/2000/svg"><g><path d="m107.286 232.164c-4.134 0-7.484 3.351-7.484 7.484v14.357c0 4.133 3.35 7.484 7.484 7.484s7.484-3.351 7.484-7.484v-14.357c-.001-4.134-3.351-7.484-7.484-7.484z"/><path d="m197.83 261.489c4.134 0 7.484-3.351 7.484-7.484v-14.357c0-4.133-3.35-7.484-7.484-7.484s-7.484 3.351-7.484 7.484v14.357c0 4.133 3.35 7.484 7.484 7.484z"/><path d="m409.391 50.021c-.455-5.463-3.721-9.914-8.323-11.339-4.553-1.412-9.419.373-13.005 4.774-4.03 4.944-22.761 38.712-28.406 48.943-1.278 2.318-1.238 5.14.109 7.42 1.346 2.28 3.796 3.679 6.444 3.679h28.307c-.021 4.797-.045 9.401-.069 13.544-.023 4.133 3.307 7.503 7.441 7.527h.044c4.112 0 7.459-3.322 7.483-7.441.015-2.521.042-7.488.07-13.63h1.555c4.134 0 7.484-3.351 7.484-7.484s-3.35-7.484-7.484-7.484h-1.498c.054-17.271.06-35.958-.152-38.509zm-14.817 38.509h-15.65c5.894-10.55 11.661-20.688 15.67-27.485.024 7.064.012 17.087-.02 27.485z"/><path d="m334.185 37.511c-12.278 0-22.904 8.734-25.268 20.768-.797 4.056 1.846 7.989 5.901 8.786 4.057.795 7.989-1.845 8.786-5.901.988-5.033 5.438-8.685 10.581-8.685 5.808 0 10.558 4.614 10.776 10.369l-.233 1.823c-.904 3.607-3.039 7.831-6.35 12.561-11.315 16.167-18.068 25.009-21.696 29.759-4.472 5.856-6.323 8.28-5.036 12.467.752 2.444 2.606 4.321 5.086 5.148 1.003.334 2.027.677 15.812.677 5.433 0 12.852-.054 23.029-.181 4.133-.052 7.441-3.445 7.388-7.577-.051-4.101-3.392-7.39-7.481-7.39-.032 0-.064 0-.096 0-7.69.097-15.87.158-22.426.164 4.006-5.336 9.742-13.14 17.682-24.485 4.519-6.455 7.462-12.544 8.75-18.1.057-.245.1-.493.133-.742l.353-2.762c.04-.314.06-.631.06-.948.001-14.199-11.551-25.751-25.751-25.751z"/><path d="m299.936 150.173h137.902c4.134 0 7.484-3.351 7.484-7.484s-3.35-7.484-7.484-7.484h-137.902c-4.134 0-7.484 3.351-7.484 7.484s3.35 7.484 7.484 7.484z"/><path d="m348.779 246.537c.98.431 2.002.635 3.008.635 2.879 0 5.623-1.67 6.855-4.474l31.69-72.089c1.017-2.314.797-4.985-.585-7.102s-3.739-3.393-6.267-3.393h-39.659c-4.134 0-7.484 3.351-7.484 7.484s3.35 7.484 7.484 7.484h28.195l-27.077 61.594c-1.663 3.782.056 8.198 3.84 9.861z"/><path d="m368.887 0c-23.212 0-46.251 5.714-66.626 16.525-3.651 1.937-5.04 6.467-3.103 10.118 1.936 3.652 6.468 5.042 10.119 3.103 18.221-9.668 38.834-14.779 59.61-14.779 70.234 0 127.373 57.139 127.373 127.373s-57.139 127.373-127.373 127.373c-24.278 0-46.985-6.838-66.313-18.675 1.14-3.612 1.767-7.449 1.767-11.434 0-14.531-8.174-27.186-20.164-33.617v-51.295c0-26.746-11.617-50.828-30.067-67.472 6.881-14.336 16.429-27.415 28.297-38.396 3.033-2.807 3.218-7.542.41-10.576-2.805-3.033-7.541-3.217-10.576-.41-12.497 11.563-22.695 25.206-30.262 40.148-14.08-8.966-30.781-14.168-48.675-14.168h-81.492c-50.108 0-90.874 40.766-90.874 90.874v51.297c-11.991 6.431-20.166 19.087-20.166 33.619 0 12.055 5.63 22.813 14.392 29.805-2.21 8.917-3.703 18.187-4.105 27.731-.357 8.467 1.283 16.305 2.871 23.885 1.883 8.996 3.661 17.492 1.785 26.012-1.551 7.042-3.782 13.878-6.143 21.114-4.131 12.659-8.403 25.75-8.776 40.066-.514 19.661 7.575 39.831 22.193 55.339 3.986 4.228 8.357 7.97 12.992 11.216-2.431 9.601-3.673 19.562-3.673 29.74 0 4.133 3.35 7.484 7.484 7.484h225.53c4.134 0 7.484-3.351 7.484-7.484 0-10.248-1.295-20.198-3.719-29.702 4.653-3.254 9.039-7.012 13.039-11.255 14.618-15.507 22.707-35.678 22.193-55.339-.373-14.316-4.645-27.407-8.776-40.066-2.361-7.237-4.592-14.072-6.143-21.114-1.876-8.521-.097-17.018 1.785-26.013 1.586-7.579 3.227-15.416 2.871-23.884-.402-9.549-1.891-18.825-4.105-27.744 1.968-1.57 3.768-3.339 5.391-5.26 21.479 13.021 46.646 20.542 73.545 20.542 78.486 0 142.341-63.854 142.341-142.341 0-78.486-63.854-142.34-142.341-142.34zm-120.836 102.196c13.089 13.645 21.159 32.14 21.159 52.496v46.917c-.988-.077-1.984-.128-2.991-.128h-5.565v-6.466c0-22.585-6.967-43.571-18.858-60.931.714-10.909 2.837-21.624 6.255-31.888zm11.815 175.532v19.902c0 6.185-4.552 11.352-10.646 12.16 4.981-9.918 8.481-20.703 10.206-32.063h.44zm-85.153 16.599h-9.021c-12.005 0-21.772 9.767-21.772 21.772v2.354c0 12.005 9.767 21.772 21.772 21.772h9.021c9.813 0 18.126-6.527 20.837-15.466h25.222c-17.018 18.318-41.299 29.801-68.214 29.801h-.001c-51.349 0-93.125-41.775-93.127-93.124v-41.744c17.752-1.332 62.59-8.228 93.128-43.628 30.543 35.407 75.375 42.301 93.127 43.63v41.737c0 17.697-4.963 34.256-13.568 48.36h-36.567c-2.711-8.938-11.024-15.464-20.837-15.464zm6.805 21.772v2.354c0 3.752-3.053 6.805-6.805 6.805h-9.021c-3.752 0-6.804-3.053-6.804-6.805v-2.354c0-3.752 3.053-6.805 6.804-6.805h9.021c3.752 0 6.805 3.053 6.805 6.805zm-11.564 52.02v33.846c0 9.592-7.803 17.395-17.396 17.395h-.001c-9.591 0-17.395-7.803-17.395-17.395v-33.836c5.665.92 11.475 1.399 17.396 1.399 5.922 0 11.73-.488 17.396-1.409zm-11.322-208.5c-1.407-1.953-3.667-3.111-6.074-3.111s-4.667 1.158-6.074 3.111c-25.854 35.91-69.678 43.433-87.055 45.007v-9.611c0-51.351 41.777-93.128 93.128-93.128 51.35 0 93.127 41.777 93.127 93.128v9.611c-17.382-1.576-61.2-9.1-87.052-45.007zm-122.726-4.927c0-41.855 34.051-75.906 75.906-75.906h81.492c15.757 0 30.405 4.829 42.55 13.08-3.241 8.534-5.668 17.384-7.228 26.425-19.547-19.381-46.432-31.372-76.067-31.372h-.001c-59.604 0-108.095 48.492-108.095 108.096v6.468h-5.565c-1.008 0-2.003.051-2.991.128v-46.919zm-20.166 84.916c0-12.769 10.388-23.158 23.157-23.158h5.565v46.315h-5.565c-12.769 0-23.157-10.388-23.157-23.157zm31.794 257.425c1.457-21.055 9.064-40.818 22.223-57.548 2.555-3.249 1.993-7.954-1.256-10.509s-7.953-1.994-10.509 1.256c-7.188 9.139-12.913 19.074-17.126 29.578-15.374-12.4-25.622-31.441-25.107-51.198.318-12.137 4.07-23.638 8.043-35.814 2.371-7.263 4.822-14.774 6.531-22.538 2.568-11.66.372-22.151-1.752-32.298-1.463-6.988-2.844-13.588-2.567-20.188.307-7.276 1.337-14.422 2.884-21.382 3.189.868 6.54 1.34 10 1.34h6.793c6.24 41.08 35.687 74.635 74.504 86.841v24.117c-11.816 3.292-23.102 8.386-33.487 15.194-3.456 2.266-4.421 6.905-2.156 10.362 2.268 3.457 6.907 4.422 10.362 2.155 7.926-5.196 16.46-9.234 25.374-12.098 1.204 16.756 15.212 30.023 32.269 30.023 17.056 0 31.063-13.265 32.269-30.019 40.038 12.924 69.678 49.209 72.749 92.724h-210.041zm241.823-88.421c.516 19.779-9.754 38.842-25.157 51.241-13.827-34.434-43.142-61.038-79.278-71.149v-24.127c22.402-7.046 41.683-21.206 55.183-39.818h9.538c.258 0 .517-.014.775-.04 13.92-1.448 24.417-13.095 24.417-27.089v-20.896c.467-.108.929-.229 1.39-.354 1.547 6.962 2.573 14.114 2.88 21.394.278 6.599-1.104 13.199-2.567 20.187-2.124 10.147-4.321 20.639-1.752 32.299 1.709 7.764 4.16 15.275 6.531 22.539 3.97 12.176 7.722 23.677 8.04 35.813zm-23.139-145.852h-5.564v-46.312h5.564c12.768 0 23.156 10.388 23.156 23.156s-10.388 23.156-23.156 23.156z"/></g></svg>